<svg width="15" height="15" viewBox="0 0 15 15" fill="none" xmlns="http://www.w3.org/2000/svg">
            <path fill-rule="evenodd" clip-rule="evenodd" d="M12.5 0H2.5C1.125 0 0 1.125 0 2.5V12.5C0 13.875 1.125 15 2.5 15H12.5C13.875 15 15 13.875 15 12.5V2.5C15 1.125 13.875 0 12.5 0ZM12.5 6.5625L10.1875 8.625L10.875 11.6875C10.9375 11.9375 10.875 12.125 10.6875 12.3125C10.625 12.375 10.5 12.4375 10.375 12.4375C10.25 12.4375 10.1875 12.4375 10.0625 12.375L7.5 10.6875L4.9375 12.25C4.75 12.375 4.5 12.375 4.3125 12.25C4.125 12.125 4.0625 11.875 4.125 11.625L4.8125 8.625L2.5 6.5625C2.3125 6.375 2.25 6.1875 2.3125 5.9375C2.375 5.75 2.5625 5.5625 2.8125 5.5625L5.8125 5.25L7 2.375C7.0625 2.25 7.1875 2.125 7.3125 2.0625C7.56248 1.9375 7.93748 2.0625 8.00002 2.375L9.1875 5.25L12.1875 5.5C12.4375 5.5 12.625 5.6875 12.6875 5.875C12.75 6.125 12.6875 6.375 12.5 6.5625Z" fill="#0D8F0A" />
</svg>